<?xml version='1.0' encoding='utf-8'?>
<svg xmlns="http://www.w3.org/2000/svg" version="1.1" viewBox="0 0 2048 2048"> <rect width="2048" height="2048" fill="#32b9be"/> <g transform="translate(1024 1024)"> <g fill="#000"> <path d="m-107.85-377.51h-86.579c-47.847 0-86.579-38.733-86.579-86.58 0-47.846 38.732-86.579 86.579-86.579 47.846 0 86.579 38.733 86.579 86.579v86.58z"/> <path d="m93.645-377.51h86.579c47.846 0 86.579-38.733 86.579-86.58 0-47.846-38.733-86.579-86.579-86.579-47.847 0-86.579 38.733-86.579 86.579v86.58z"/> <path d="m-107.85 44.954h-86.579c-47.847 0-86.579 38.733-86.579 86.579 0 47.847 38.732 86.579 86.579 86.579 47.846 0 86.579-38.732 86.579-86.579v-86.579z"/> <path d="m93.645 44.954h86.579c47.846 0 86.579 38.733 86.579 86.579 0 47.847-38.733 86.579-86.579 86.579-47.847 0-86.579-38.732-86.579-86.579v-86.579z"/> <path d="m-280.31-469.26h546.91v603.98h-546.91v-603.98z"/> <path d="m-191.22-550.67h367.33v367.33h-367.33v-367.33z"/> <path d="m-193.34-149.22h367.33v367.33h-367.33v-367.33z"/> <path d="m-107.85-44.954h-86.579c-47.847 0-86.579-38.733-86.579-86.579 0-47.847 38.732-86.579 86.579-86.579 47.846 0 86.579 38.732 86.579 86.579v86.579z"/> <path d="m93.645-44.954h86.579c47.846 0 86.579-38.733 86.579-86.579 0-47.847-38.733-86.579-86.579-86.579-47.847 0-86.579 38.732-86.579 86.579v86.579z"/> <path d="m-107.85 377.51h-86.579c-47.847 0-86.579 38.733-86.579 86.58 0 47.846 38.732 86.579 86.579 86.579 47.846 0 86.579-38.733 86.579-86.579v-86.58z"/> <path d="m93.645 377.51h86.579c47.846 0 86.579 38.733 86.579 86.58 0 47.846-38.733 86.579-86.579 86.579-47.847 0-86.579-38.733-86.579-86.579v-86.58z"/> <path d="m-280.31-136.71h546.91v603.98h-546.91v-603.98z"/> <path d="m-191.22-218.11h367.33v367.33h-367.33v-367.33z"/> <path d="m-193.34 183.33h367.33v367.33h-367.33v-367.33z"/> </g> <g fill="#e9dcb7"> <path d="m-100.06-324.59h-79.877c-44.143 0-79.878-35.735-79.878-79.878s35.735-79.878 79.878-79.878 79.877 35.735 79.877 79.878v79.878z"/> <path d="m85.846-324.59h79.878c44.143 0 79.878-35.735 79.878-79.878s-35.735-79.878-79.878-79.878-79.878 35.735-79.878 79.878v79.878z"/> <path d="m-100.06 65.176h-79.877c-44.143 0-79.878 35.734-79.878 79.877s35.735 79.878 79.878 79.878 79.877-35.735 79.877-79.878v-79.877z"/> <path d="m85.846 65.176h79.878c44.143 0 79.878 35.734 79.878 79.877s-35.735 79.878-79.878 79.878-79.878-35.735-79.878-79.878v-79.877z"/> <path d="m-259.16-409.24h504.58v557.23h-504.58v-557.23z"/> <path d="m-176.97-484.34h338.9v338.9h-338.9v-338.9z"/> <path d="m-178.92-113.97h338.9v338.9h-338.9v-338.9z"/> <path d="m-100.06-17.774h-79.877c-44.143 0-79.878-35.735-79.878-79.878 0-44.143 35.735-79.878 79.878-79.878s79.877 35.735 79.877 79.878v79.878z"/> <path d="m85.846-17.774h79.878c44.143 0 79.878-35.735 79.878-79.878 0-44.143-35.735-79.878-79.878-79.878s-79.878 35.735-79.878 79.878v79.878z"/> <path d="m-100.06 371.99h-79.877c-44.143 0-79.878 35.735-79.878 79.878s35.735 79.878 79.878 79.878 79.877-35.735 79.877-79.878v-79.878z"/> <path d="m85.846 371.99h79.878c44.143 0 79.878 35.735 79.878 79.878s-35.735 79.878-79.878 79.878-79.878-35.735-79.878-79.878v-79.878z"/> <path d="m-259.16-102.43h504.58v557.23h-504.58v-557.23z"/> <path d="m-176.97-177.53h338.9v338.9h-338.9v-338.9z"/> <path d="m-178.92 192.84h338.9v338.9h-338.9v-338.9z"/> <path d="m-100.06-371.99h-79.877c-44.143 0-79.878-35.735-79.878-79.878s35.735-79.878 79.878-79.878 79.877 35.735 79.877 79.878v79.878z"/> <path d="m85.846-371.99h79.878c44.143 0 79.878-35.735 79.878-79.878s-35.735-79.878-79.878-79.878-79.878 35.735-79.878 79.878v79.878z"/> <path d="m-100.06 17.774h-79.877c-44.143 0-79.878 35.735-79.878 79.878 0 44.143 35.735 79.878 79.878 79.878s79.877-35.735 79.877-79.878v-79.878z"/> <path d="m85.846 17.774h79.878c44.143 0 79.878 35.735 79.878 79.878 0 44.143-35.735 79.878-79.878 79.878s-79.878-35.735-79.878-79.878v-79.878z"/> <path d="m-259.16-456.64h504.58v557.23h-504.58v-557.23z"/> <path d="m-176.97-531.74h338.9v338.9h-338.9v-338.9z"/> <path d="m-178.92-161.37h338.9v338.9h-338.9v-338.9z"/> <path d="m-100.06-65.176h-79.877c-44.143 0-79.878-35.734-79.878-79.877s35.735-79.878 79.878-79.878 79.877 35.735 79.877 79.878v79.877z"/> <path d="m85.846-65.176h79.878c44.143 0 79.878-35.734 79.878-79.877s-35.735-79.878-79.878-79.878-79.878 35.735-79.878 79.878v79.877z"/> <path d="m-100.06 324.59h-79.877c-44.143 0-79.878 35.735-79.878 79.878s35.735 79.878 79.878 79.878 79.877-35.735 79.877-79.878v-79.878z"/> <path d="m85.846 324.59h79.878c44.143 0 79.878 35.735 79.878 79.878s-35.735 79.878-79.878 79.878-79.878-35.735-79.878-79.878v-79.878z"/> <path d="m-259.16-149.83h504.58v557.23h-504.58v-557.23z"/> <path d="m-176.97-224.93h338.9v338.9h-338.9v-338.9z"/> <path d="m-178.92 145.44h338.9v338.9h-338.9v-338.9z"/> </g> <g fill="#000"> <path d="m-148.34-531.74h28.247c15.611 0 28.248 12.637 28.248 28.248 0 15.61-12.637 28.247-28.248 28.247-15.61 0-28.247-12.637-28.247-28.247v-28.248z"/> <path d="m148.34-531.74h-28.247c-15.611 0-28.248 12.637-28.248 28.248 0 15.61 12.637 28.247 28.248 28.247 15.61 0 28.247-12.637 28.247-28.247v-28.248z"/> <path d="m-119.86-531.74h239.09v56.495h-239.09v-56.495z"/> </g> <g fill="#cac2ac"> <path d="m130.6 416.98h101.18c0 27.035-0.107 62.684-17.427 80.848-18.437 19.337-54.977 20.335-83.756 20.335v-101.18z"/> <path d="m-146.4 416.98h-101.18c0 27.035 0.108 62.684 17.428 80.848 18.437 19.337 54.976 20.335 83.756 20.335v-101.18z"/> <path d="m-146.4 416.98v-66.407c-27.036 0-62.684 0.07-80.849 11.437-19.337 12.101-20.335 36.082-20.335 54.97h101.18z"/> <path d="m130.68 416.82v-66.408c27.035 0 62.684 0.071 80.849 11.438 19.336 12.101 20.334 36.082 20.334 54.97h-101.18z"/> <path d="m-146.4 382.79h289.93v135.37h-289.93v-135.37z"/> <path d="m-146.64 350.55h289.93v135.37h-289.93v-135.37z"/> </g> <path d="m-152.26 482.07h-37.22c-16.09 0-29.175-13.085-29.175-29.175v-37.22c0-16.09 13.085-29.175 29.175-29.175h37.22c16.09 0 29.175 13.085 29.175 29.175v37.22c0 16.09-13.085 29.175-29.175 29.175z" fill="#a63171"/> <path d="m-43.239 483.77h-37.22c-16.09 0-29.175-13.085-29.175-29.175v-37.22c0-16.09 13.085-29.176 29.175-29.176h37.22c16.09 0 29.175 13.086 29.175 29.176v37.22c0 16.09-13.085 29.175-29.175 29.175z" fill="#cff09e"/> <path d="m66.395 486.28h-37.22c-16.09 0-29.175-13.085-29.175-29.175v-37.22c0-16.09 13.085-29.175 29.175-29.175h37.22c16.09 0 29.175 13.085 29.175 29.175v37.22c0 16.09-13.085 29.175-29.175 29.175z" fill="#87c424"/> <path d="m175.42 486.28h-37.22c-16.09 0-29.175-13.085-29.175-29.175v-37.22c0-16.09 13.085-29.175 29.175-29.175h37.22c16.09 0 29.176 13.085 29.176 29.175v37.22c0 16.09-13.086 29.175-29.176 29.175z" fill="#26bb91"/> <path d="m-160.12 291.28h-37.22c-16.09 0-29.175-13.085-29.175-29.175v-37.22c0-16.09 13.085-29.175 29.175-29.175h37.22c16.09 0 29.175 13.085 29.175 29.175v37.22c0 16.09-13.085 29.175-29.175 29.175z" fill="#26bb91"/> <path d="m-51.097 292.98h-37.22c-16.09 0-29.175-13.085-29.175-29.175v-37.22c0-16.09 13.085-29.175 29.175-29.175h37.22c16.09 0 29.175 13.085 29.175 29.175v37.22c0 16.09-13.085 29.175-29.175 29.175z" fill="#13d6dd"/> <path d="m58.538 295.48h-37.22c-16.09 0-29.175-13.086-29.175-29.176v-37.22c0-16.09 13.085-29.175 29.175-29.175h37.22c16.09 0 29.175 13.085 29.175 29.175v37.22c0 16.09-13.085 29.176-29.175 29.176z" fill="#26bb91"/> <path d="m167.56 295.48h-37.22c-16.09 0-29.176-13.086-29.176-29.176v-37.22c0-16.09 13.086-29.175 29.176-29.175h37.22c16.09 0 29.175 13.085 29.175 29.175v37.22c0 16.09-13.085 29.176-29.175 29.176z" fill="#f25e5b"/> <path d="m-160.12 135.4h-37.22c-16.09 0-29.175-13.085-29.175-29.175v-37.221c0-16.09 13.085-29.175 29.175-29.175h37.22c16.09 0 29.175 13.085 29.175 29.175v37.221c0 16.09-13.085 29.175-29.175 29.175z" fill="#98a093"/> <path d="m-51.097 137.1h-37.22c-16.09 0-29.175-13.086-29.175-29.176v-37.22c0-16.09 13.085-29.175 29.175-29.175h37.22c16.09 0 29.175 13.085 29.175 29.175v37.22c0 16.09-13.085 29.176-29.175 29.176z" fill="#ffb30d"/> <path d="m58.538 139.6h-37.22c-16.09 0-29.175-13.085-29.175-29.175v-37.22c0-16.09 13.085-29.175 29.175-29.175h37.22c16.09 0 29.175 13.085 29.175 29.175v37.22c0 16.09-13.085 29.175-29.175 29.175z" fill="#987f69"/> <path d="m167.56 139.6h-37.22c-16.09 0-29.176-13.085-29.176-29.175v-37.22c0-16.09 13.086-29.175 29.176-29.175h37.22c16.09 0 29.175 13.085 29.175 29.175v37.22c0 16.09-13.085 29.175-29.175 29.175z" fill="#9b133a"/> <path d="m-160.12-18.315h-37.22c-16.09 0-29.175-13.085-29.175-29.175v-37.22c0-16.09 13.085-29.175 29.175-29.175h37.22c16.09 0 29.175 13.085 29.175 29.175v37.22c0 16.09-13.085 29.175-29.175 29.175z" fill="#3162a6"/> <path d="m-51.097-16.612h-37.22c-16.09 0-29.175-13.085-29.175-29.175v-37.22c0-16.09 13.085-29.176 29.175-29.176h37.22c16.09 0 29.175 13.086 29.175 29.176v37.22c0 16.09-13.085 29.175-29.175 29.175z" fill="#343838"/> <path d="m58.538-14.109h-37.22c-16.09 0-29.175-13.085-29.175-29.175v-37.22c0-16.09 13.085-29.175 29.175-29.175h37.22c16.09 0 29.175 13.085 29.175 29.175v37.22c0 16.09-13.085 29.175-29.175 29.175z" fill="#d95a43"/> <path d="m167.56-14.109h-37.22c-16.09 0-29.176-13.085-29.176-29.175v-37.22c0-16.09 13.086-29.175 29.176-29.175h37.22c16.09 0 29.175 13.085 29.175 29.175v37.22c0 16.09-13.085 29.175-29.175 29.175z" fill="#00dffe"/> <path d="m-160.12-172.03h-37.22c-16.09 0-29.175-13.085-29.175-29.175v-37.221c0-16.09 13.085-29.175 29.175-29.175h37.22c16.09 0 29.175 13.085 29.175 29.175v37.221c0 16.09-13.085 29.175-29.175 29.175z" fill="#f25e5b"/> <path d="m-51.097-170.33h-37.22c-16.09 0-29.175-13.085-29.175-29.175v-37.22c0-16.09 13.085-29.175 29.175-29.175h37.22c16.09 0 29.175 13.085 29.175 29.175v37.22c0 16.09-13.085 29.175-29.175 29.175z" fill="#5bcfbf"/> <path d="m58.538-167.82h-37.22c-16.09 0-29.175-13.085-29.175-29.175v-37.22c0-16.09 13.085-29.176 29.175-29.176h37.22c16.09 0 29.175 13.086 29.175 29.176v37.22c0 16.09-13.085 29.175-29.175 29.175z" fill="#cdb380"/> <path d="m167.56-167.82h-37.22c-16.09 0-29.176-13.085-29.176-29.175v-37.22c0-16.09 13.086-29.176 29.176-29.176h37.22c16.09 0 29.175 13.086 29.175 29.176v37.22c0 16.09-13.085 29.175-29.175 29.175z" fill="#a63171"/> <path d="m-153.84-325.74h-37.22c-16.09 0-29.176-13.085-29.176-29.175v-37.22c0-16.09 13.086-29.175 29.176-29.175h37.22c16.09 0 29.175 13.085 29.175 29.175v37.22c0 16.09-13.085 29.175-29.175 29.175z" fill="#005f6c"/> <path d="m-44.818-324.04h-37.22c-16.09 0-29.176-13.085-29.176-29.175v-37.22c0-16.09 13.086-29.176 29.176-29.176h37.22c16.09 0 29.175 13.086 29.175 29.176v37.22c0 16.09-13.085 29.175-29.175 29.175z" fill="#9c9c9c"/> <path d="m64.816-321.54h-37.22c-16.09 0-29.175-13.085-29.175-29.175v-37.22c0-16.09 13.085-29.175 29.175-29.175h37.22c16.09 0 29.175 13.085 29.175 29.175v37.22c0 16.09-13.085 29.175-29.175 29.175z" fill="#005f6c"/> <path d="m173.84-321.54h-37.22c-16.09 0-29.175-13.085-29.175-29.175v-37.22c0-16.09 13.085-29.175 29.175-29.175h37.22c16.09 0 29.175 13.085 29.175 29.175v37.22c0 16.09-13.085 29.175-29.175 29.175z" fill="#cdb380"/> </g> </svg>